<?xml version="1.0" standalone="no"?>
<!DOCTYPE svg PUBLIC "-//W3C//DTD SVG 20010904//EN"
 "http://www.w3.org/TR/2001/REC-SVG-20010904/DTD/svg10.dtd">
<svg version="1.0" xmlns="http://www.w3.org/2000/svg"
 width="512.000000pt" height="512.000000pt" viewBox="0 0 512.000000 512.000000"
 preserveAspectRatio="xMidYMid meet">
<metadata>
Created by potrace 1.14, written by Peter Selinger 2001-2017
</metadata>
<g transform="translate(0.000000,512.000000) scale(0.100000,-0.100000)"
fill="#000000" stroke="none">
<path d="M1707 4863 c-4 -3 -7 -17 -7 -30 0 -20 -5 -23 -40 -23 -34 0 -40 -3
-40 -21 0 -15 4 -19 16 -15 9 3 33 6 53 6 34 0 39 3 48 34 13 41 -7 72 -30 49z"/>
<path d="M1413 4667 c-41 -21 -19 -46 40 -47 14 0 18 6 15 27 -3 31 -21 37
-55 20z"/>
<path d="M1110 4645 c0 -9 -12 -18 -30 -21 -26 -6 -30 -11 -31 -43 -1 -20 0
-40 1 -46 2 -5 3 -52 4 -103 2 -89 12 -122 35 -108 6 4 11 16 11 26 0 12 8 20
23 22 14 2 23 11 25 25 2 13 11 23 25 25 15 2 23 12 27 32 4 26 10 30 37 30
40 1 44 20 6 24 -41 5 -53 20 -53 63 0 33 -4 41 -25 49 -14 5 -25 16 -25 25 0
8 -7 15 -15 15 -8 0 -15 -7 -15 -15z"/>
<path d="M1330 4600 c0 -13 -10 -24 -26 -30 -31 -12 -29 -44 4 -48 18 -3 22 1
22 22 0 18 6 25 23 28 14 2 23 11 25 26 3 18 -1 22 -22 22 -19 0 -26 -5 -26
-20z"/>
<path d="M1527 4614 c-4 -4 -7 -15 -7 -25 0 -11 -9 -19 -22 -21 -15 -2 -24
-11 -26 -24 -2 -12 -12 -24 -22 -27 -16 -4 -20 -16 -22 -78 l-3 -74 -65 -5
c-72 -6 -65 3 -69 -82 -1 -11 -9 -18 -21 -18 -11 0 -20 -7 -20 -16 0 -12 9
-14 43 -12 27 2 41 7 39 16 -1 7 9 17 23 22 15 6 25 17 25 29 0 15 9 21 40 26
31 5 40 11 40 26 0 12 10 23 25 29 15 6 25 17 25 30 0 17 6 20 50 20 42 0 50
3 50 19 0 22 26 31 88 31 35 0 42 3 42 20 0 17 -8 19 -67 22 -62 3 -68 5 -71
26 -2 14 -10 22 -22 22 -11 0 -20 8 -22 22 -3 22 -19 33 -31 22z"/>
<path d="M1797 4554 c-13 -13 5 -24 39 -24 24 0 34 5 34 15 0 10 -10 15 -33
15 -19 0 -37 -3 -40 -6z"/>
<path d="M1986 4385 c-4 -16 -13 -25 -26 -25 -14 0 -20 -7 -20 -21 0 -17 5
-20 38 -17 32 3 37 7 40 31 3 26 5 27 68 27 50 0 64 3 64 15 0 12 -15 15 -79
15 -76 0 -79 -1 -85 -25z"/>
<path d="M1014 4305 c-7 -18 3 -35 22 -35 8 0 14 10 14 25 0 27 -27 35 -36 10z"/>
<path d="M1890 4296 c0 -21 21 -31 31 -15 14 22 11 29 -11 29 -11 0 -20 -6
-20 -14z"/>
<path d="M2157 4263 c-77 -3 -88 -6 -85 -21 3 -14 16 -17 80 -18 85 -2 98 -6
98 -35 0 -16 7 -19 41 -19 32 0 42 -4 46 -20 3 -11 10 -20 17 -21 6 0 36 -1
66 -2 48 -2 55 -5 58 -23 2 -16 12 -23 40 -28 46 -7 54 1 50 50 -2 32 -7 40
-25 42 -20 3 -23 9 -23 53 l0 49 -137 -2 c-76 -1 -178 -4 -226 -5z"/>
<path d="M740 4190 c0 -63 -2 -70 -20 -70 -22 0 -23 -3 -20 -72 2 -51 -13 -88
-34 -88 -9 0 -16 -17 -21 -46 -5 -34 -12 -48 -26 -51 -11 -3 -19 -14 -19 -25
0 -11 -8 -22 -19 -25 -21 -5 -31 -75 -31 -216 0 -72 -2 -79 -21 -84 -20 -6
-21 -11 -19 -172 4 -262 3 -272 -19 -278 -11 -3 -21 -13 -24 -23 -3 -10 -15
-20 -28 -22 -16 -2 -25 -11 -27 -25 -3 -22 -8 -23 -88 -23 -81 0 -85 -1 -94
-25 -9 -24 -13 -25 -95 -25 l-85 0 0 -75 c0 -68 2 -75 20 -75 13 0 20 -7 20
-20 0 -16 7 -20 33 -20 66 0 107 -12 107 -30 0 -19 36 -30 96 -30 28 0 36 -5
44 -25 5 -14 16 -25 24 -25 11 0 16 -14 18 -47 3 -40 6 -48 23 -48 13 0 21 8
23 22 3 21 9 22 90 25 82 3 87 4 90 26 3 21 8 22 93 22 86 0 89 1 95 24 3 15
14 26 27 28 18 2 23 11 25 46 l3 42 45 0 c50 0 62 -24 20 -40 -22 -8 -24 -13
-20 -72 2 -35 4 -66 4 -69 0 -3 25 -4 55 -1 58 5 85 -7 85 -37 0 -14 16 -16
128 -15 l127 1 3 47 c3 38 7 49 23 53 22 6 23 18 19 144 l-2 86 31 6 c30 6 31
9 31 56 0 44 3 49 25 55 14 4 25 11 25 18 0 6 7 16 15 22 18 14 30 125 21 200
-6 45 -11 56 -25 56 -14 0 -20 10 -24 41 -7 51 0 69 24 69 17 0 19 8 19 90 l0
89 -62 3 c-57 3 -63 5 -68 28 -4 16 -14 26 -28 28 -16 2 -22 10 -22 28 0 24
-1 24 -90 24 -82 0 -90 -2 -90 -19 0 -21 -19 -31 -61 -31 -17 0 -29 -5 -29
-13 0 -21 -20 -35 -41 -30 -15 4 -19 14 -19 49 0 32 -4 44 -15 44 -10 0 -15
-10 -15 -32 0 -18 -3 -50 -6 -70 -6 -35 -9 -37 -47 -40 -35 -3 -42 -7 -47 -28
-5 -21 -12 -25 -47 -28 -34 -3 -42 -7 -45 -25 -2 -14 -10 -22 -23 -22 -18 0
-20 8 -23 97 l-3 97 -37 3 c-36 3 -37 4 -40 49 -3 40 0 47 18 52 18 5 20 13
20 75 0 66 2 71 23 74 21 3 22 7 18 80 -4 92 6 158 24 158 19 0 25 23 25 91 0
52 -2 59 -20 59 -18 0 -20 -7 -20 -70z m318 -947 c2 -15 10 -23 23 -23 17 0
19 -8 19 -70 0 -66 -2 -71 -25 -80 -23 -9 -25 -14 -25 -76 0 -57 -3 -67 -20
-71 -11 -3 -20 -14 -20 -24 0 -12 -10 -23 -25 -29 -16 -6 -25 -17 -25 -30 0
-20 -5 -21 -87 -18 -82 3 -88 5 -91 25 -2 14 -11 23 -25 25 -14 2 -22 10 -22
23 0 13 8 21 22 23 14 2 23 11 25 25 2 17 11 23 43 27 l40 5 3 118 c3 115 3
118 27 127 16 6 25 17 25 30 0 19 5 21 68 18 61 -3 67 -5 70 -25z m-416 -310
c8 -61 5 -63 -93 -63 l-89 0 0 29 c0 16 -3 36 -6 45 -5 13 7 16 68 19 40 1 83
4 94 5 18 2 23 -4 26 -35z"/>
<path d="M1194 4205 c-4 -10 -1 -21 7 -26 20 -12 34 -5 34 17 0 24 -33 31 -41
9z"/>
<path d="M972 4168 c4 -59 28 -63 28 -4 0 35 -4 46 -16 46 -12 0 -14 -9 -12
-42z"/>
<path d="M1110 4151 c0 -27 -17 -36 -65 -36 -39 0 -40 -1 -43 -38 -4 -50 12
-69 57 -65 31 3 36 7 39 31 2 19 9 27 22 27 10 0 29 4 42 9 21 8 23 14 20 50
-4 39 -6 41 -38 41 -27 0 -34 -4 -34 -19z"/>
<path d="M1982 4148 c2 -12 10 -23 18 -23 22 0 19 39 -3 43 -15 3 -18 -1 -15
-20z"/>
<path d="M2098 4063 l-78 -4 0 -39 c0 -33 4 -40 19 -40 10 0 21 9 24 19 4 17
15 20 68 23 58 3 64 5 67 26 2 14 -1 21 -10 20 -7 -1 -48 -4 -90 -5z"/>
<path d="M2627 4054 c-8 -8 1 -24 14 -24 5 0 9 7 9 15 0 15 -12 20 -23 9z"/>
<path d="M1610 3894 c0 -9 -9 -18 -21 -21 -14 -4 -19 -12 -17 -27 2 -11 6 -20
11 -18 4 1 21 2 37 2 22 0 30 5 30 18 0 9 10 22 22 27 41 19 33 35 -16 35 -35
0 -46 -4 -46 -16z"/>
<path d="M3040 3621 l0 -88 80 1 80 1 0 38 c0 30 -4 37 -20 37 -15 0 -20 7
-20 25 0 20 -5 25 -25 25 -20 0 -25 5 -25 25 0 22 -4 25 -35 25 l-35 0 0 -89z"/>
<path d="M1798 3663 c-33 -3 -48 -9 -48 -19 0 -11 23 -14 129 -14 114 0 159 8
134 23 -13 8 -164 15 -215 10z"/>
<path d="M2810 3605 c0 -17 5 -25 18 -25 10 0 24 -6 31 -12 10 -11 15 -9 26 6
22 29 2 56 -40 56 -31 0 -35 -3 -35 -25z"/>
<path d="M3033 3413 c-42 -4 -43 -5 -43 -39 0 -28 5 -36 25 -44 15 -6 25 -17
25 -30 0 -11 7 -20 15 -20 12 0 15 -15 15 -74 0 -63 3 -77 20 -89 11 -7 23
-31 28 -53 7 -37 10 -39 49 -42 34 -3 42 -7 45 -25 2 -13 12 -23 28 -27 15 -4
26 -14 28 -27 2 -11 12 -23 23 -26 24 -6 23 -42 -1 -42 -11 0 -16 -14 -18 -47
-2 -37 0 -48 11 -48 19 0 27 -22 27 -71 0 -32 3 -39 20 -39 15 0 20 -7 20 -25
0 -18 5 -25 19 -25 17 0 21 -10 27 -71 5 -58 10 -73 25 -76 16 -4 19 -15 19
-59 0 -40 -4 -54 -14 -54 -11 0 -16 -14 -18 -47 -3 -46 -4 -48 -33 -48 -23 0
-31 5 -33 23 -3 21 -7 22 -108 22 l-104 0 0 -75 0 -75 -45 0 c-33 0 -45 -4
-45 -15 0 -9 -9 -15 -25 -15 -18 0 -28 7 -35 26 -8 21 -15 25 -33 20 -12 -3
-30 -6 -39 -6 -11 0 -18 -8 -18 -20 0 -26 -36 -27 -43 0 -4 16 -15 19 -73 22
-63 3 -69 5 -72 26 -3 18 -10 22 -43 22 -32 0 -40 4 -45 24 -3 13 -14 26 -25
29 -11 3 -19 14 -19 26 0 20 -5 21 -89 21 -85 0 -90 1 -93 23 -3 19 -9 22 -43
22 -44 0 -63 -28 -25 -38 18 -5 20 -13 20 -76 0 -67 2 -72 25 -81 27 -10 34
-37 11 -46 -7 -3 -51 -6 -97 -7 l-84 -2 3 -41 3 -42 -68 -12 c-37 -6 -97 -10
-133 -8 -59 3 -65 5 -68 26 -2 13 -14 27 -28 32 -14 6 -24 18 -24 30 0 18 -6
20 -70 20 -47 0 -70 -4 -70 -12 0 -29 25 -77 42 -82 29 -7 21 -60 -10 -64 -18
-3 -23 2 -28 27 -5 21 -12 31 -25 31 -14 0 -19 7 -19 25 0 23 -4 25 -45 25
-28 0 -48 -5 -51 -13 -8 -23 11 -92 26 -92 8 0 17 -11 20 -25 5 -20 13 -26 42
-28 21 -2 47 2 59 8 17 10 24 9 36 -3 19 -19 9 -37 -22 -37 -20 0 -23 -6 -27
-42 -5 -54 10 -103 36 -114 12 -5 22 -19 24 -31 2 -13 8 -23 13 -23 5 0 14
-11 19 -25 5 -14 15 -25 22 -25 7 0 18 -10 23 -22 6 -13 20 -24 33 -26 14 -2
22 -10 22 -23 0 -15 7 -19 33 -19 74 0 139 -13 145 -29 8 -23 23 -31 58 -31
31 0 38 -11 44 -68 1 -4 10 -10 21 -14 10 -4 23 -18 28 -31 8 -21 15 -23 61
-23 45 1 54 4 61 24 7 18 16 22 49 22 34 0 42 4 50 25 10 26 25 31 49 16 21
-14 41 -2 41 25 0 17 -6 24 -20 24 -13 0 -22 9 -26 25 -4 16 -13 25 -26 25
-17 0 -19 6 -16 47 2 35 7 49 20 51 11 2 18 -5 20 -20 3 -21 10 -24 65 -28 66
-5 73 -1 73 41 0 16 7 19 45 19 l45 0 0 45 c0 38 -3 45 -20 45 -13 0 -20 7
-20 20 0 13 -10 24 -25 30 -22 8 -25 16 -25 55 l0 45 89 0 c80 0 89 -2 94 -20
3 -11 17 -24 32 -30 23 -9 26 -15 23 -48 -3 -32 0 -37 20 -40 15 -2 22 2 22
13 0 9 9 19 19 22 11 3 21 15 23 27 2 17 11 22 46 24 35 3 45 8 52 28 11 29
30 31 37 5 4 -16 15 -21 52 -23 39 -3 46 -6 49 -25 3 -17 10 -23 28 -23 24 0
25 1 22 73 l-3 72 -67 3 c-60 3 -68 5 -68 22 0 18 7 20 80 20 77 0 81 -1 90
-25 8 -21 16 -25 50 -25 l40 0 0 44 c0 26 6 48 15 56 16 13 105 17 124 6 7 -5
11 -67 11 -182 l0 -175 -47 3 c-39 2 -50 7 -58 26 -9 20 -16 23 -65 20 -50 -3
-55 -5 -58 -28 -8 -71 -6 -70 -82 -70 -63 0 -70 -2 -70 -20 0 -16 -8 -19 -62
-22 l-63 -3 -3 -46 -3 -47 -45 -7 c-41 -6 -44 -8 -44 -36 0 -22 -5 -29 -20
-29 -28 0 -25 -19 6 -30 39 -15 27 -43 -23 -53 -38 -7 -42 -11 -54 -52 -10
-35 -18 -45 -34 -45 -12 0 -30 -6 -41 -14 -27 -21 -7 -37 53 -43 33 -4 53 -12
65 -27 15 -19 27 -21 125 -21 100 0 108 -1 111 -20 7 -42 11 -46 32 -35 11 6
20 20 20 31 0 12 5 19 13 17 8 -3 13 -30 15 -76 3 -64 5 -72 22 -72 13 0 20
-7 20 -20 0 -18 -8 -20 -107 -22 l-108 -3 -3 -71 -3 -71 -42 -9 c-35 -7 -42
-13 -45 -34 -6 -56 -13 -70 -33 -70 -15 0 -20 -5 -17 -23 2 -16 11 -23 33 -25
73 -6 70 -3 67 -95 -3 -77 -2 -85 17 -90 16 -4 20 -15 23 -53 l3 -49 270 4
c149 2 270 4 270 5 1 0 -1 26 -3 57 l-4 56 -188 6 c-197 7 -220 11 -220 32 0
24 -21 28 -27 6 -7 -29 -58 -30 -66 -1 -3 11 -9 20 -14 19 -25 -4 -33 4 -33
34 0 64 13 110 31 114 13 4 19 17 21 52 l3 46 64 7 c78 9 92 14 89 30 -2 9 15
14 60 16 56 3 62 1 62 -16 0 -16 10 -21 46 -27 34 -5 48 -12 51 -26 5 -17 15
-19 133 -19 126 0 129 1 132 22 2 17 12 24 33 28 17 3 29 9 28 13 -2 4 -3 22
-3 41 0 28 -4 35 -22 38 -20 3 -23 10 -26 54 -2 43 -7 53 -24 57 -11 3 -18 12
-16 19 3 9 32 15 89 18 83 5 84 5 87 32 3 27 2 28 -42 28 -40 0 -46 3 -46 21
0 12 -8 23 -18 26 -36 9 -61 153 -27 153 8 0 15 8 16 18 1 20 16 -28 24 -79 7
-46 28 -54 145 -54 l85 0 3 -47 3 -48 110 0 109 0 0 -44 c0 -52 7 -56 91 -56
l59 0 0 -45 0 -45 84 0 c80 0 85 1 88 22 3 21 9 23 71 26 61 3 68 1 75 -18 7
-19 17 -22 65 -23 l57 -2 0 41 c0 33 -4 43 -20 47 -16 4 -19 15 -22 73 l-3 69
-34 3 c-22 2 -35 10 -38 21 -3 13 -22 21 -73 30 -53 10 -69 17 -73 32 -5 18
-15 19 -141 19 l-136 0 0 -25 c0 -28 14 -31 118 -26 46 3 54 0 59 -17 3 -12
18 -25 35 -31 27 -10 29 -14 26 -53 l-3 -43 -47 -3 c-43 -3 -48 -5 -48 -28 0
-17 -5 -24 -20 -24 -16 0 -20 7 -20 30 0 19 5 30 14 30 15 0 26 30 26 73 l0
27 -96 0 -96 0 6 35 c4 19 4 50 1 69 -6 30 -11 34 -45 40 -26 4 -39 12 -43 26
-4 16 -13 20 -51 20 -42 0 -46 2 -46 24 0 22 -6 26 -44 31 -41 7 -44 9 -50 45
-4 26 -12 39 -26 43 -18 5 -20 15 -22 133 l-3 129 -132 3 c-127 2 -133 4 -133
23 0 12 -8 23 -20 26 -18 5 -20 14 -20 94 l0 88 43 8 42 9 3 72 3 72 37 0 c51
0 82 10 82 25 0 7 -9 15 -20 18 -16 4 -20 14 -20 51 0 40 -3 48 -25 56 -23 9
-25 14 -25 74 0 55 -3 67 -20 76 -18 9 -20 21 -20 101 0 86 -1 90 -24 99 -14
5 -26 19 -28 32 -2 19 -10 24 -40 26 -38 3 -38 4 -38 48 0 40 -2 44 -25 44
-15 0 -28 7 -32 18 -4 9 -15 23 -25 30 -10 7 -18 19 -18 27 0 8 -9 19 -20 25
-15 8 -20 21 -20 49 0 30 4 40 20 44 29 8 26 45 -5 57 -25 9 -25 11 -25 124
l0 115 -44 6 c-36 6 -46 12 -48 29 -2 17 -11 22 -45 24 -34 3 -42 7 -45 25 -2
18 -11 23 -45 25 -38 3 -43 6 -43 28 0 26 4 25 -87 17z m-378 -1313 c3 -5 -1
-10 -9 -10 -9 0 -16 5 -16 10 0 6 4 10 9 10 6 0 13 -4 16 -10z m32 -92 c-2
-13 -4 -5 -4 17 -1 22 1 32 4 23 2 -10 2 -28 0 -40z m243 -113 c0 -8 -7 -15
-15 -15 -8 0 -15 7 -15 15 0 8 7 15 15 15 8 0 15 -7 15 -15z m-450 -51 c0 -21
-4 -25 -22 -22 -15 2 -24 11 -26 26 -3 18 1 22 22 22 21 0 26 -5 26 -26z
m-374 -135 c8 -14 -11 -33 -25 -25 -11 7 -4 36 9 36 5 0 12 -5 16 -11z m1469
-60 c0 -7 -8 -15 -17 -17 -18 -3 -25 18 -11 32 10 10 28 1 28 -15z m-1147 -56
c-2 -17 -9 -28 -18 -28 -9 0 -16 11 -18 28 -3 22 1 27 18 27 17 0 21 -5 18
-27z m1286 -101 c4 -44 4 -102 0 -130 l-7 -52 -44 0 -44 0 3 88 c3 80 5 87 24
90 16 2 20 8 16 27 -6 34 4 55 26 55 17 0 20 -10 26 -78z m-1369 -42 c0 -18
-6 -26 -23 -28 -24 -4 -38 18 -28 44 3 9 15 14 28 12 17 -2 23 -10 23 -28z
m1545 -6 c0 -2 -13 -4 -30 -4 -16 0 -30 4 -30 8 0 5 14 7 30 4 17 -2 30 -6 30
-8z m-415 -44 c3 -5 1 -10 -4 -10 -6 0 -11 5 -11 10 0 6 2 10 4 10 3 0 8 -4
11 -10z m-128 -101 c5 -19 12 -21 92 -19 47 2 101 2 120 1 l33 -1 -3 -77 -4
-78 63 -3 c53 -3 62 -6 62 -22 0 -18 -9 -20 -107 -22 l-108 -3 -5 -45 c-5 -48
-33 -68 -42 -32 -3 11 -18 22 -34 25 -50 11 -56 21 -64 102 -5 56 -12 80 -24
87 -23 13 -23 108 0 108 9 0 18 -9 21 -21z"/>
<path d="M874 2368 c-7 -123 -12 -153 -24 -153 -8 0 -17 11 -20 25 -5 22 -13
26 -65 31 -33 4 -63 5 -67 2 -5 -2 -8 -80 -8 -172 0 -160 1 -169 20 -174 17
-4 20 -14 20 -62 l0 -56 -42 3 -43 3 -3 48 c-3 41 -7 49 -29 58 -25 9 -26 12
-21 72 3 34 4 68 1 75 -3 7 -23 12 -48 12 -49 0 -65 14 -41 38 11 11 31 15 69
13 l53 -2 13 38 c7 21 11 63 9 93 -3 48 -6 55 -28 60 -15 4 -26 14 -28 27 -4
25 -36 33 -132 33 -96 0 -130 -8 -130 -31 0 -12 -10 -23 -25 -29 -15 -6 -25
-17 -25 -30 0 -13 -7 -20 -20 -20 -19 0 -20 -7 -20 -137 0 -169 -6 -210 -31
-216 -15 -4 -19 -14 -19 -45 0 -60 -11 -102 -26 -102 -11 0 -14 -21 -14 -93
l0 -94 53 5 c56 4 71 -4 79 -43 2 -11 10 -20 18 -20 12 0 16 19 18 94 1 52 7
101 13 107 15 19 39 5 39 -22 0 -23 2 -23 113 -26 l112 -3 3 -45 c2 -36 8 -48
25 -55 29 -13 29 -49 0 -53 -20 -3 -23 -9 -23 -48 0 -38 3 -44 20 -44 15 0 22
-9 27 -30 6 -30 6 -30 57 -24 77 9 75 6 78 86 l3 73 65 0 65 0 3 113 c3 107 1
114 -18 119 -19 5 -20 13 -20 127 0 66 3 131 6 144 l7 23 13 -27 c8 -14 14
-43 14 -64 0 -32 4 -39 25 -44 15 -4 25 -13 25 -25 0 -22 41 -33 94 -24 l36 6
0 93 c0 87 -1 94 -20 94 -18 0 -20 7 -20 54 0 96 -11 146 -31 146 -16 0 -19
10 -21 73 -3 66 -5 72 -25 75 -17 2 -23 10 -23 27 0 13 -6 28 -13 32 -8 4 -16
16 -20 26 -3 9 -15 17 -25 17 -18 0 -20 -13 -28 -152z"/>
<path d="M2710 2496 c0 -15 24 -28 34 -19 13 14 5 33 -14 33 -11 0 -20 -6 -20
-14z"/>
<path d="M2760 2419 c0 -33 3 -40 18 -37 9 2 17 9 16 16 -1 6 -2 23 -2 37 -1
15 -8 25 -17 25 -11 0 -15 -11 -15 -41z"/>
<path d="M1480 2381 c0 -21 -3 -52 -6 -70 -6 -27 -3 -32 20 -41 16 -6 26 -17
26 -30 0 -21 24 -27 49 -11 10 6 23 5 35 -2 12 -6 26 -11 31 -12 6 0 11 -10
13 -22 4 -24 23 -35 41 -24 8 6 10 27 5 73 l-7 66 -41 8 c-40 9 -41 10 -44 57
l-3 47 -60 0 -59 0 0 -39z"/>
<path d="M1200 2240 c0 -18 8 -37 20 -47 14 -12 20 -30 20 -58 0 -48 12 -70
34 -62 17 7 22 85 10 160 -6 35 -8 37 -45 37 -37 0 -39 -2 -39 -30z"/>
<path d="M1700 2146 c0 -19 27 -28 33 -11 7 15 -1 25 -20 25 -7 0 -13 -6 -13
-14z"/>
<path d="M1293 1978 c-8 -40 -11 -44 -51 -52 l-42 -9 0 -143 c0 -140 0 -143
23 -146 18 -2 23 -10 25 -45 3 -34 7 -42 25 -45 14 -2 24 -12 27 -28 4 -20 11
-25 35 -25 29 0 30 2 33 48 3 42 5 47 28 47 22 0 24 4 24 45 0 39 3 47 25 55
21 8 25 16 25 49 0 33 -3 40 -22 43 -20 3 -23 10 -26 49 -2 37 -7 48 -23 52
-11 3 -19 14 -19 25 0 14 -8 22 -22 24 -19 2 -25 12 -32 51 -5 26 -13 47 -17
47 -4 0 -12 -19 -16 -42z"/>
<path d="M1610 1851 c0 -24 13 -33 34 -25 27 10 20 44 -9 44 -18 0 -25 -5 -25
-19z"/>
<path d="M2717 1513 c-14 -13 -6 -33 13 -33 13 0 20 7 20 20 0 19 -20 27 -33
13z"/>
<path d="M290 1381 c0 -54 4 -91 10 -91 6 0 10 35 10 84 0 47 -4 88 -10 91 -6
4 -10 -27 -10 -84z"/>
<path d="M336 1263 c-11 -11 -6 -23 9 -23 8 0 15 4 15 9 0 13 -16 22 -24 14z"/>
<path d="M380 1151 c0 -5 10 -11 23 -13 14 -2 22 -10 22 -23 0 -12 8 -22 20
-25 11 -3 21 -16 23 -28 3 -19 10 -22 48 -22 40 0 44 -2 44 -25 0 -16 6 -25
15 -25 10 0 15 10 15 34 0 28 -4 35 -22 38 -15 2 -24 11 -26 26 -2 13 -10 22
-22 22 -19 0 -34 25 -24 41 3 5 -22 9 -55 9 -34 0 -61 -4 -61 -9z"/>
<path d="M2724 1011 c-15 -15 6 -21 76 -21 44 0 80 4 80 9 0 9 -148 20 -156
12z"/>
<path d="M3950 820 c0 -36 -4 -50 -14 -50 -8 0 -16 -7 -20 -15 -5 -13 14 -15
129 -15 110 0 135 3 135 14 0 8 -10 16 -22 18 -19 2 -24 11 -28 48 l-5 45 -87
3 -88 3 0 -51z"/>
<path d="M835 750 c-3 -5 1 -10 9 -10 9 0 16 5 16 10 0 6 -4 10 -9 10 -6 0
-13 -4 -16 -10z"/>
<path d="M1160 501 c0 -19 -15 -36 -34 -36 -21 0 -15 -24 6 -27 15 -2 24 -11
26 -25 3 -19 10 -23 39 -23 23 0 33 4 31 13 -3 6 -9 12 -14 12 -25 1 -35 19
-32 58 2 26 -1 42 -9 44 -8 3 -13 -4 -13 -16z"/>
<path d="M2305 510 c-7 -12 2 -30 16 -30 5 0 9 9 9 20 0 21 -15 27 -25 10z"/>
<path d="M1800 500 c0 -5 7 -10 15 -10 8 0 15 5 15 10 0 6 -7 10 -15 10 -8 0
-15 -4 -15 -10z"/>
<path d="M1760 424 c0 -27 4 -43 10 -39 6 3 10 24 10 46 0 21 -4 39 -10 39 -5
0 -10 -21 -10 -46z"/>
<path d="M1990 395 c0 -8 5 -15 10 -15 6 0 10 7 10 15 0 8 -4 15 -10 15 -5 0
-10 -7 -10 -15z"/>
<path d="M2309 368 c0 -2 -1 -31 -2 -66 -2 -44 2 -62 11 -62 8 0 12 20 12 65
0 37 -4 65 -10 65 -5 0 -10 -1 -11 -2z"/>
<path d="M2168 300 c-2 -48 0 -60 12 -60 12 0 15 13 15 60 0 81 -22 81 -27 0z"/>
</g>
</svg>
